<svg fill="none" height="128" viewBox="0 0 128 128" width="128" xmlns="http://www.w3.org/2000/svg"><path d="m0 0h128v128h-128z" fill="#fff"/><path d="m0 0h128v128h-128z" fill="#fff"/><path d="m23 20h82v89h-82z"/><path d="m30.321 28.9h67.357v71.2h-67.357z"/><path d="m64 66.503c-.388 0-.76-.156-1.035-.435a1.494 1.494 0 0 1 -.43-1.049v-.52c0-.818.656-1.482 1.465-1.482.808 0 1.464.664 1.464 1.483v.52c0 .392-.154.77-.429 1.048a1.455 1.455 0 0 1 -1.035.435z" fill="#000"/><path d="m97.679 46.952v35.096l-4.298 2.358-28.448 15.575-.2.119-32.947-18.052v-35.096l32.946-18.052 32.948 18.052z" fill="#6d98f7"/><path d="m93.286 49.919v34.487l-23.985 13.158-4.056 2.225-.366.192-.19.119-.279-.163-32.624-17.89v-34.487l2.928-1.602 25.67-14.091z" fill="#93b2f4"/><path d="m64 65.02v29.755l-29.286-15.695v-29.77l29.286 15.709z" fill="#dbe0ee"/><path d="m97.679 46.952-4.481 2.403-29.198 15.665-33.59-18.023-.089-.045 33.68-18.052z" fill="#93b2f4"/><path d="m93.198 49.355-29.239 15.665-33.638-18.023 29.24-15.65z" fill="#dbe0ee"/><path d="m69.3 97.564-4.055 2.225-.835.148-.205.044-.205.119-33.679-18.052v-35.096l4.393-3.219v35.348l29.286 15.694 5.3 2.788z" fill="#fff"/><path d="m23 20h82v89h-82z"/><path d="m23 20h82v89h-82z"/><g fill="#3575ff"><path d="m64 101.07a1.452 1.452 0 0 1 -1.036-.434 1.493 1.493 0 0 1 -.428-1.05v-35.086c0-.82.655-1.484 1.464-1.484.808 0 1.464.665 1.464 1.484v35.087c0 .393-.154.771-.429 1.049a1.45 1.45 0 0 1 -1.035.434z"/><path d="m64 109a1.44 1.44 0 0 1 -.686-.173l-39.536-21.236a1.485 1.485 0 0 1 -.778-1.311v-43.562c0-.549.3-1.053.778-1.31l39.536-21.236a1.45 1.45 0 0 1 1.372 0l39.536 21.236c.479.257.778.761.778 1.31v43.562c0 .55-.299 1.053-.778 1.31l-39.536 21.237a1.445 1.445 0 0 1 -.686.173zm-38.072-23.612 38.072 20.45 38.072-20.45v-41.777l-38.072-20.449-38.072 20.45z"/><path d="m64 101.583a1.45 1.45 0 0 1 -.685-.172l-33.678-18.052a1.487 1.487 0 0 1 -.78-1.311v-14.581c0-.82.656-1.484 1.464-1.484.809 0 1.465.664 1.465 1.484v13.688l32.214 17.267 32.214-17.267v-33.31l-32.214-17.267-32.214 17.267v7.755c0 .82-.656 1.483-1.465 1.483a1.474 1.474 0 0 1 -1.464-1.483v-8.648c0-.55.3-1.054.78-1.311l33.678-18.052c.429-.23.942-.23 1.37 0l33.679 18.051c.48.257.78.761.78 1.31v35.097c0 .55-.3 1.054-.78 1.31l-33.679 18.053a1.45 1.45 0 0 1 -.685.172z"/><path d="m64 66.496a1.45 1.45 0 0 1 -.685-.172l-33.678-18.058a1.493 1.493 0 0 1 -.606-2.003c.377-.723 1.261-1 1.975-.619l32.994 17.691 32.994-17.69a1.455 1.455 0 0 1 1.975.62 1.493 1.493 0 0 1 -.605 2.002l-33.68 18.057a1.444 1.444 0 0 1 -.685.172z"/></g><path d="m30.321 63.016c.809 0 1.465-.664 1.465-1.483 0-.82-.656-1.483-1.465-1.483-.808 0-1.464.664-1.464 1.483 0 .82.656 1.483 1.464 1.483z" fill="#428dff"/></svg>